# xmcd
#
# Track frame offsets:
#	183
#	13338
#	25318
#	36250
#	46605
#	59800
#	72853
#	86008
#	96258
#	107715
#	121463
#	133620
#	148625
#	159335
#	173928
#	187265
#
# Disc length: 2660
#
# Revision: 1
# Processed by: cddbd v1.5.1PL0 Copyright (c) Steve Scherf et al.
# Submitted via: ExactAudioCopy v0.90b4
# Normalized: r0:DSETVAR1
#
DISCID=e80a6210
DTITLE=Various Artist - Collectables Blues Collection, Vol. 2
DYEAR=1982
DGENRE=Blues
TTITLE0=Elmore James - Dust My Broom
TTITLE1=Little Walter - My Babe
TTITLE2=Jimmy Reed - Baby, What You Want Me to Do
TTITLE3=Buster Brown - Lost in a Dream
TTITLE4=Howlin' Wolf - Evil
TTITLE5=Daisy Mae and Her Hepcats - Woman Trouble
TTITLE6=Champion Jack Dupree - Highway Blues
TTITLE7=Lightnin' Hopkins - Sick Feelin' Blues (I'm Achin')
TTITLE8=John Lee Hooker - Boom Boom
TTITLE9=James Crawford - Early in the Morning
TTITLE10=Elmore James - I Have a Right to Love My Baby
TTITLE11=Sonny Terry - Bad Luck Blues
TTITLE12=Jimmy Reed - Ain't That Lovin' You Baby
TTITLE13=J.B. Summers - Merry-Go-Round
TTITLE14=Buster Brown - Doctor Brown
TTITLE15=Lightnin' Hopkins - Evil Hearted Woman
EXTD=
EXTT0=
EXTT1=
EXTT2=
EXTT3=
EXTT4=
EXTT5=
EXTT6=
EXTT7=
EXTT8=
EXTT9=
EXTT10=
EXTT11=
EXTT12=
EXTT13=
EXTT14=
EXTT15=
PLAYORDER=
